<svg width="408" height="113" viewBox="0 0 408 113" fill="none" xmlns="http://www.w3.org/2000/svg">
<path d="M52.1945 42.2049C52.1945 42.2049 56.3849 16.2734 50.7101 5.23701C47.8268 -0.376921 41.6873 -1.24272 35.8792 1.52282C32.6754 3.04894 29.5814 5.67773 27.1922 9.22431C4.28908 43.2219 0.00195312 55.8085 0.00195312 55.8085C0.00195312 55.8085 25.6285 25.384 39.1671 23.7118C50.1601 22.346 52.2025 42.2137 52.2025 42.2137L52.1945 42.2049Z" fill="#FF5872"/>
<path d="M46.3257 84.5143C46.3257 84.5143 67.2505 69.2059 70.8829 57.3057C72.733 51.2547 68.9921 46.2096 62.9701 43.9715C59.6479 42.7373 55.6393 42.3618 51.4937 43.1442C11.7514 50.6444 0.00195312 56.448 0.00195312 56.448C0.00195312 56.448 39.1947 53.4404 49.9248 62.0334C58.6431 69.005 46.3252 84.5264 46.3252 84.5264L46.3257 84.5143Z" fill="#E20BC3"/>
<path d="M12.8669 110.729C12.8669 110.729 38.2281 115.234 49.087 109.537C54.6108 106.643 55.5125 100.382 52.8548 94.4287C51.3881 91.1445 48.8405 87.9626 45.3877 85.4925C12.2902 61.8121 0 57.3252 0 57.3252C0 57.3252 29.5742 83.7546 31.0934 97.5911C32.3349 108.826 12.8582 110.737 12.8582 110.737L12.8669 110.729Z" fill="#883FFF"/>
<path d="M123 89.2749C120.004 89.2749 117.313 88.6826 114.929 87.4979C112.606 86.2509 110.618 84.5674 108.967 82.4474C107.378 80.3272 106.155 77.8955 105.299 75.1519C104.504 72.346 104.107 69.3532 104.107 66.1731C104.168 62.993 104.626 60.0313 105.483 57.2879C106.339 54.482 107.561 52.0501 109.151 49.9923C110.802 47.8724 112.789 46.2201 115.112 45.0354C117.436 43.8507 120.065 43.2584 123 43.2584C125.812 43.2584 128.441 43.8507 130.887 45.0354C133.394 46.2201 135.595 47.8724 137.49 49.9923C139.447 52.0501 140.976 54.482 142.076 57.2879C143.177 60.0313 143.727 62.962 143.727 66.0796C143.727 69.322 143.177 72.3773 142.076 75.2455C140.976 78.0514 139.478 80.5143 137.582 82.6343C135.687 84.692 133.486 86.3132 130.979 87.4979C128.472 88.6826 125.812 89.2749 123 89.2749ZM121.532 78.332C123.672 78.332 125.598 77.8332 127.31 76.8356C129.022 75.7755 130.367 74.3414 131.346 72.5331C132.385 70.7248 132.905 68.6673 132.905 66.3602C132.905 63.9908 132.385 61.9019 131.346 60.0938C130.367 58.2232 129.022 56.7888 127.31 55.7913C125.598 54.7314 123.672 54.2013 121.532 54.2013C119.453 54.2013 117.558 54.7314 115.846 55.7913C114.134 56.8514 112.758 58.2855 111.719 60.0938C110.741 61.9019 110.252 63.9908 110.252 66.3602C110.252 68.6673 110.741 70.7248 111.719 72.5331C112.758 74.3414 114.134 75.7755 115.846 76.8356C117.558 77.8332 119.453 78.332 121.532 78.332ZM104.565 89.3685C102.914 89.3685 101.692 89.0878 100.897 88.5268C100.102 88.028 99.6128 87.3733 99.4294 86.5626C99.2458 85.6896 99.1543 84.7233 99.1543 83.6631V27.9194C99.1543 26.8595 99.2458 25.9242 99.4294 25.1135C99.6128 24.2405 100.102 23.5548 100.897 23.0558C101.692 22.557 102.914 22.3076 104.565 22.3076C106.277 22.3076 107.5 22.557 108.234 23.0558C108.967 23.5548 109.426 24.2405 109.609 25.1135C109.793 25.9865 109.885 26.9218 109.885 27.9194V85.5338C109.64 86.9056 109.12 87.8721 108.326 88.4332C107.592 89.0568 106.339 89.3685 104.565 89.3685Z" fill="white"/>
<path d="M167.778 89.3688C165.516 89.3688 163.498 89.213 161.725 88.9013C160.013 88.5894 158.515 88.0593 157.231 87.3111C156.008 86.5629 155 85.5653 154.205 84.3183C153.41 83.0088 152.799 81.4189 152.371 79.5483C152.004 77.6777 151.82 75.4329 151.82 72.8141V27.7326C151.82 26.6727 151.912 25.7374 152.095 24.9267C152.34 24.0539 152.829 23.368 153.563 22.8692C154.358 22.3079 155.611 22.0273 157.323 22.0273C159.035 22.0273 160.258 22.2768 160.992 22.7757C161.786 23.2745 162.276 23.9604 162.459 24.8331C162.704 25.6438 162.826 26.5791 162.826 27.639V72.3463C162.826 73.531 162.887 74.5288 163.009 75.3393C163.193 76.0875 163.468 76.7111 163.835 77.2099C164.263 77.6464 164.783 77.9581 165.394 78.1452C166.066 78.3323 166.861 78.4259 167.778 78.4259C168.573 78.4259 169.276 78.5194 169.888 78.7065C170.561 78.8934 171.08 79.3612 171.447 80.1094C171.875 80.8576 172.089 82.0735 172.089 83.757C172.089 85.503 171.875 86.7813 171.447 87.5918C171.08 88.4023 170.561 88.9013 169.888 89.0882C169.215 89.2753 168.512 89.3688 167.778 89.3688Z" fill="white"/>
<path d="M216.296 89.1818C214.523 89.1818 213.208 88.8388 212.352 88.1529C211.496 87.467 211.069 86.5317 211.069 85.347L211.711 82.2607C211.221 83.0712 210.396 84.0378 209.234 85.1602C208.072 86.2201 206.544 87.1866 204.648 88.0596C202.753 88.8701 200.46 89.2753 197.77 89.2753C194.896 89.2753 192.176 88.683 189.607 87.4983C187.101 86.2513 184.869 84.5678 182.912 82.4478C181.017 80.2653 179.489 77.8024 178.327 75.0587C177.226 72.2531 176.676 69.2601 176.676 66.08C176.676 63.0247 177.226 60.1565 178.327 57.4751C179.489 54.7318 181.048 52.2999 183.004 50.1799C184.961 48.0599 187.192 46.4076 189.699 45.2229C192.267 43.9757 194.958 43.3523 197.77 43.3523C200.277 43.3523 202.386 43.6953 204.098 44.381C205.871 45.0669 207.369 45.9399 208.592 47C209.815 47.9976 210.824 49.0575 211.619 50.1799L211.069 47.4675C211.069 46.0957 211.496 45.0669 212.352 44.381C213.208 43.6328 214.554 43.2588 216.388 43.2588C218.1 43.2588 219.323 43.5392 220.057 44.1005C220.79 44.5993 221.249 45.3162 221.432 46.2515C221.616 47.1246 221.707 48.1221 221.707 49.2446V83.4764C221.707 84.5366 221.616 85.5031 221.432 86.3759C221.249 87.2489 220.76 87.9348 219.965 88.4336C219.231 88.9324 218.008 89.1818 216.296 89.1818ZM199.421 78.3324C201.5 78.3324 203.365 77.8023 205.015 76.7425C206.666 75.6824 207.981 74.2483 208.959 72.44C209.999 70.5694 210.518 68.5119 210.518 66.2671C210.518 63.8354 209.999 61.7151 208.959 59.9071C207.92 58.0988 206.544 56.6959 204.832 55.6981C203.181 54.6382 201.316 54.1082 199.237 54.1082C196.975 54.1082 194.958 54.6692 193.184 55.7917C191.411 56.8518 190.005 58.3169 188.966 60.1875C187.987 61.9958 187.498 64.0535 187.498 66.3606C187.498 68.6052 188.018 70.6319 189.057 72.44C190.097 74.2483 191.503 75.6824 193.276 76.7425C195.11 77.8023 197.159 78.3324 199.421 78.3324Z" fill="white"/>
<path d="M236.32 89.2752C234.669 89.2752 233.446 88.9945 232.651 88.4334C231.917 87.9346 231.459 87.28 231.276 86.4693C231.092 85.5962 231 84.6299 231 83.5698V48.5897C231 47.5921 231.092 46.6879 231.276 45.8774C231.459 45.0667 231.948 44.4433 232.743 44.0068C233.538 43.508 234.761 43.2586 236.412 43.2586C237.879 43.2586 238.98 43.4455 239.713 43.8197C240.447 44.1939 240.936 44.6614 241.181 45.2227C241.425 45.7838 241.547 46.3449 241.547 46.9062C241.609 47.4673 241.67 47.9038 241.731 48.2155L241.364 51.2085C241.731 50.2109 242.342 49.2444 243.198 48.3091C244.054 47.3738 245.094 46.532 246.316 45.7838C247.54 44.9733 248.854 44.3497 250.259 43.9132C251.727 43.4144 253.227 43.165 254.754 43.165C257.627 43.165 260.197 43.6951 262.458 44.755C264.72 45.8151 266.647 47.3115 268.237 49.2444C269.886 51.1773 271.14 53.4844 271.996 56.1657C272.852 58.7845 273.279 61.7462 273.279 65.0509V83.6634C273.279 84.7235 273.158 85.6898 272.914 86.5628C272.73 87.3735 272.272 88.0282 271.538 88.527C270.804 89.0258 269.551 89.2752 267.777 89.2752C266.065 89.2752 264.812 88.9945 264.018 88.4334C263.222 87.9346 262.734 87.28 262.55 86.4693C262.366 85.5962 262.274 84.6299 262.274 83.5698V64.9574C262.274 62.7128 261.876 60.7799 261.083 59.1587C260.349 57.5375 259.249 56.2903 257.782 55.4175C256.374 54.5445 254.57 54.108 252.369 54.108C250.229 54.108 248.366 54.5757 246.774 55.5108C245.185 56.3838 243.963 57.631 243.107 59.252C242.251 60.8732 241.823 62.7751 241.823 64.9574V83.6634C241.823 84.7235 241.731 85.6898 241.547 86.5628C241.364 87.3735 240.875 88.0282 240.08 88.527C239.346 89.0258 238.093 89.2752 236.32 89.2752Z" fill="white"/>
<path d="M319.099 44.567C320.261 45.6271 320.994 46.5624 321.298 47.3729C321.666 48.1836 321.666 49.0254 321.298 49.8984C320.994 50.7088 320.32 51.7064 319.28 52.8911L290.208 87.2166C289.168 88.339 288.253 89.0872 287.456 89.4614C286.663 89.8979 285.867 89.9602 285.073 89.6485C284.339 89.3366 283.451 88.7442 282.412 87.8714C281.374 86.8113 280.67 85.9073 280.302 85.1591C279.936 84.3484 279.936 83.5066 280.302 82.6336C280.73 81.7609 281.434 80.763 282.412 79.6409L311.487 45.3152C313.014 43.6317 314.268 42.7276 315.246 42.6028C316.285 42.4783 317.569 43.1329 319.099 44.567ZM282.504 44.567C283.543 43.6317 284.429 43.0393 285.163 42.7899C285.959 42.5405 286.723 42.6341 287.456 43.0706C288.253 43.4446 289.138 44.193 290.116 45.3152L319.188 79.6409C320.228 80.763 320.932 81.7609 321.298 82.6336C321.666 83.5066 321.696 84.3484 321.39 85.1591C321.084 85.9073 320.35 86.8113 319.188 87.8714C318.151 88.8067 317.233 89.3991 316.437 89.6485C315.703 89.9602 314.94 89.8979 314.146 89.4614C313.412 89.0872 312.494 88.339 311.395 87.2166L282.32 52.8911C281.342 51.769 280.67 50.7711 280.302 49.8984C279.936 49.0254 279.936 48.1836 280.302 47.3729C280.67 46.5001 281.404 45.5648 282.504 44.567Z" fill="white"/>
<path d="M348.927 89.9302C344.955 89.9302 341.469 89.2755 338.472 87.9663C335.539 86.6568 333.061 84.8797 331.044 82.6349C329.086 80.3278 327.589 77.7715 326.549 74.9656C325.571 72.0972 325.083 69.1355 325.083 66.0802C325.083 61.5908 326.091 57.6002 328.108 54.1084C330.126 50.6166 332.91 47.8729 336.454 45.8778C340.061 43.8824 344.188 42.8848 348.835 42.8848C352.139 42.8848 355.042 43.4148 357.549 44.4747C360.057 45.5348 362.134 46.9377 363.786 48.6837C365.497 50.3672 366.781 52.2378 367.637 54.2955C368.555 56.3532 369.012 58.3484 369.012 60.2812C369.012 63.5859 368.219 65.9866 366.629 67.4832C365.099 68.9796 363.174 69.7278 360.85 69.7278H336.638C336.698 71.8478 337.342 73.6874 338.564 75.246C339.847 76.805 341.437 78.0209 343.333 78.8937C345.29 79.7044 347.278 80.1097 349.295 80.1097C350.823 80.1097 352.169 80.0161 353.33 79.829C354.554 79.6421 355.592 79.4238 356.447 79.1744C357.306 78.8627 358.037 78.5507 358.649 78.2391C359.323 77.9274 359.932 77.6467 360.485 77.3973C361.034 77.1479 361.554 76.9921 362.042 76.9295C362.716 76.8672 363.388 77.0231 364.059 77.3973C364.734 77.7715 365.283 78.4262 365.711 79.3615C366.079 79.9851 366.323 80.5774 366.445 81.1385C366.629 81.6373 366.721 82.1361 366.721 82.6349C366.721 83.8821 365.987 85.0668 364.52 86.1892C363.052 87.2491 360.972 88.1221 358.283 88.808C355.654 89.5562 352.534 89.9302 348.927 89.9302ZM336.638 63.0871H355.44C356.48 63.0871 357.273 62.9313 357.823 62.6196C358.375 62.2454 358.649 61.4972 358.649 60.3748C358.649 58.9407 358.221 57.6625 357.365 56.54C356.51 55.3553 355.348 54.4513 353.88 53.8277C352.412 53.1418 350.701 52.7988 348.746 52.7988C346.482 52.7988 344.435 53.2666 342.599 54.2019C340.765 55.0749 339.298 56.2906 338.198 57.8496C337.158 59.4085 336.638 61.1543 336.638 63.0871Z" fill="white"/>
<path d="M381.952 89.3677C380.301 89.3677 379.079 89.0871 378.283 88.526C377.549 88.0272 377.092 87.3413 376.907 86.4683C376.726 85.5953 376.634 84.629 376.634 83.5688V48.8694C376.634 47.747 376.726 46.7804 376.907 45.97C377.092 45.097 377.549 44.4423 378.283 44.0058C379.079 43.507 380.333 43.2576 382.044 43.2576C383.696 43.2576 384.888 43.4757 385.622 43.9123C386.415 44.3488 386.905 44.9098 387.089 45.5957C387.333 46.2194 387.455 46.8427 387.455 47.4663L386.721 49.1498C387.027 48.651 387.455 48.0587 388.005 47.3728C388.557 46.6246 389.291 45.9074 390.206 45.2218C391.124 44.4733 392.224 43.881 393.507 43.4445C394.793 42.9457 396.321 42.6963 398.094 42.6963C398.828 42.6963 399.592 42.7898 400.388 42.977C401.244 43.1018 402.07 43.3199 402.863 43.6316C403.719 43.881 404.483 44.2239 405.157 44.6604C405.828 45.097 406.348 45.627 406.714 46.2504C407.082 46.8117 407.266 47.4663 407.266 48.2145C407.266 50.21 406.776 51.8934 405.799 53.2653C404.821 54.6371 403.659 55.323 402.313 55.323C401.395 55.323 400.724 55.2294 400.296 55.0423C399.868 54.8552 399.5 54.6371 399.194 54.3877C398.95 54.1383 398.552 53.9199 398.002 53.7328C397.512 53.5459 396.719 53.4524 395.617 53.4524C394.701 53.4524 393.754 53.6082 392.776 53.9199C391.858 54.2318 391.002 54.6993 390.206 55.323C389.413 55.9463 388.771 56.7571 388.281 57.7546C387.791 58.6899 387.547 59.7811 387.547 61.0283V83.7559C387.547 84.8161 387.455 85.7824 387.271 86.6554C387.089 87.4659 386.599 88.1208 385.806 88.6195C385.01 89.1183 383.726 89.3677 381.952 89.3677Z" fill="white"/>
</svg>
